<?xml version="1.0" standalone="no"?>
<!DOCTYPE svg PUBLIC "-//W3C//DTD SVG 20010904//EN"
 "http://www.w3.org/TR/2001/REC-SVG-20010904/DTD/svg10.dtd">
<svg version="1.0" xmlns="http://www.w3.org/2000/svg"
 width="250.000000pt" height="250.000000pt" viewBox="0 0 250.000000 250.000000"
 preserveAspectRatio="xMidYMid meet">

<g transform="translate(0.000000,250.000000) scale(0.100000,-0.100000)"
fill="#000000" stroke="none">
<path d="M1040 2203 c0 -25 2 -44 5 -41 9 8 12 88 3 88 -4 0 -8 -21 -8 -47z"/>
<path d="M1110 2231 c0 -36 19 -71 37 -70 17 1 17 2 1 6 -13 3 -18 15 -18 44
0 21 -4 39 -10 39 -5 0 -10 -9 -10 -19z"/>
<path d="M1173 2215 c0 -22 2 -30 4 -17 2 12 2 30 0 40 -3 9 -5 -1 -4 -23z"/>
<path d="M1206 2210 c2 -44 14 -69 14 -30 0 23 0 23 22 4 19 -15 20 -16 9 -1
-10 13 -11 20 -2 31 9 10 8 16 -3 25 -12 10 -13 9 -9 -8 3 -12 1 -21 -6 -21
-6 0 -11 9 -11 20 0 11 -4 20 -8 20 -5 0 -7 -18 -6 -40z"/>
<path d="M1448 2243 c-2 -5 -1 -26 3 -48 l6 -40 2 48 c1 44 -3 57 -11 40z"/>
<path d="M1287 2233 c-10 -9 -9 -51 1 -57 5 -3 8 11 8 29 -1 19 -1 35 -2 35 0
0 -4 -3 -7 -7z"/>
<path d="M1338 2206 c-4 -38 6 -49 17 -16 3 11 2 27 -3 36 -8 14 -10 9 -14
-20z"/>
<path d="M1440 1955 l0 -55 50 0 50 0 0 55 0 55 -50 0 -50 0 0 -55z m88 3 l3
-38 -40 0 -41 0 0 41 0 40 38 -3 c35 -3 37 -5 40 -40z"/>
<path d="M1470 1955 c0 -18 5 -25 20 -25 15 0 20 7 20 25 0 18 -5 25 -20 25
-15 0 -20 -7 -20 -25z"/>
<path d="M1563 1958 c0 -47 3 -55 14 -47 10 9 13 6 13 -16 0 -22 3 -25 13 -16
18 14 9 71 -13 91 -9 8 -19 22 -23 30 -3 8 -5 -11 -4 -42z"/>
<path d="M1628 2004 c-13 -4 -16 -12 -11 -37 7 -37 18 -47 44 -40 14 4 19 0
18 -13 0 -11 -3 -14 -6 -6 -7 17 -23 15 -23 -3 0 -8 5 -15 10 -15 6 0 10 -12
10 -26 0 -23 2 -25 15 -14 21 18 25 11 15 -30 -7 -32 -9 -33 -15 -12 -9 27
-25 29 -32 2 -5 -17 -7 -18 -21 -4 -13 14 -13 17 -1 26 12 8 12 9 -1 6 -20 -6
-24 -77 -4 -85 17 -6 19 -30 2 -36 -7 -2 -9 -8 -5 -13 4 -5 12 -2 17 6 7 10
10 11 10 3 0 -7 12 -14 28 -14 20 -1 22 -2 7 -6 -24 -6 -44 -23 -27 -23 7 0
12 -7 12 -15 0 -9 6 -12 17 -8 13 5 12 1 -6 -18 -22 -23 -23 -24 -37 -5 -7 11
-16 17 -20 14 -10 -10 35 -48 56 -48 11 0 20 -7 20 -15 0 -8 -4 -15 -10 -15
-5 0 -10 5 -10 11 0 6 -7 3 -16 -5 -17 -17 -16 -47 2 -53 6 -2 15 6 19 19 l7
23 7 -25 c5 -23 11 -25 64 -25 40 -1 57 3 57 12 0 7 7 13 15 13 8 0 15 -7 15
-16 0 -20 42 -15 47 6 4 13 3 13 -5 1 -9 -12 -13 -12 -26 2 -18 18 -21 37 -6
37 6 0 10 -7 10 -15 0 -18 16 -20 23 -2 4 10 6 10 6 0 1 -18 26 -16 41 2 10
12 10 19 2 27 -9 9 -12 9 -12 0 0 -20 -28 -13 -35 9 -4 11 -4 23 -1 26 3 4 6
1 6 -5 0 -7 7 -12 15 -12 10 0 15 10 15 26 0 22 -3 24 -14 15 -12 -10 -16 -8
-21 11 -9 27 -34 53 -43 44 -3 -4 -1 -16 6 -26 10 -17 10 -20 -3 -20 -9 0 -15
9 -15 25 0 14 -4 25 -10 25 -5 0 -10 -6 -10 -12 0 -9 -4 -8 -10 2 -9 13 -11
13 -21 0 -9 -13 -10 -13 -6 0 2 10 16 15 36 14 31 0 32 1 27 30 -4 23 -3 27 4
16 9 -13 11 -13 20 0 9 13 12 13 21 -2 5 -10 18 -18 27 -17 14 0 14 2 2 6 -32
13 -33 52 -1 54 13 0 13 2 1 6 -8 4 -22 16 -32 27 -10 12 -17 15 -18 9 0 -7 5
-13 10 -13 24 0 7 -18 -22 -24 -24 -5 -36 -2 -44 9 -6 8 -14 15 -18 15 -9 0
-7 -28 3 -32 4 -1 12 -13 16 -26 7 -23 6 -23 -14 -5 -13 11 -21 29 -21 50 0
30 3 33 29 33 16 0 31 -3 34 -7 2 -5 2 -2 0 5 -1 8 -3 19 -3 27 0 7 -11 13
-25 13 -16 0 -25 -6 -25 -16 0 -12 -3 -13 -12 -4 -21 21 -28 13 -23 -23 5 -39
-2 -65 -16 -65 -5 0 -9 23 -9 50 0 29 -7 61 -15 74 -9 13 -15 28 -14 32 5 29
-3 42 -26 42 -14 0 -29 2 -32 6 -11 11 19 36 43 36 18 0 23 -5 21 -21 -1 -12
4 -24 11 -26 6 -3 12 2 12 11 0 9 5 16 10 16 6 0 10 -7 10 -15 0 -8 6 -12 15
-10 51 16 50 16 35 26 -13 8 -13 10 0 19 9 6 10 10 3 10 -7 0 -17 -8 -22 -17
-9 -15 -12 -16 -20 -4 -9 14 -100 24 -133 15z m72 -124 c0 -5 -5 -10 -11 -10
-5 0 -7 5 -4 10 3 6 8 10 11 10 2 0 4 -4 4 -10z m-30 -130 c0 -16 -4 -30 -10
-30 -5 0 -10 7 -10 15 0 9 -7 18 -15 21 -24 9 -17 24 10 24 21 0 25 -5 25 -30z
m30 17 c0 -9 11 -13 30 -12 18 1 36 -5 46 -16 14 -16 12 -17 -41 -17 -38 1
-52 4 -43 10 10 8 10 11 1 15 -15 6 -17 33 -3 33 6 0 10 -6 10 -13z m170 3 c0
-5 -2 -10 -4 -10 -3 0 -8 5 -11 10 -3 6 -1 10 4 10 6 0 11 -4 11 -10z m-114
-100 c-5 -46 -3 -50 15 -50 15 0 19 5 15 15 -4 10 1 15 14 15 24 0 25 -4 4
-24 -8 -9 -11 -16 -5 -16 15 0 14 -47 -1 -54 -7 -3 -2 -4 12 -2 14 2 19 1 13
-1 -7 -3 -13 -9 -13 -14 0 -5 -7 -9 -15 -9 -12 0 -14 9 -10 40 5 45 -5 50 -35
20 -24 -24 -25 -30 -5 -30 9 0 12 -6 9 -15 -4 -8 -16 -15 -27 -15 -15 0 -18 3
-10 11 8 8 7 19 -5 39 -15 26 -15 30 1 48 20 22 22 58 5 66 -7 3 -3 3 10 0 16
-4 22 -1 22 10 0 9 3 16 6 16 3 0 3 -22 0 -50z m114 -70 c0 -15 -7 -20 -25
-20 -18 0 -25 5 -25 20 0 15 7 20 25 20 18 0 25 -5 25 -20z"/>
<path d="M1710 1740 c0 -5 5 -10 10 -10 6 0 10 5 10 10 0 6 -4 10 -10 10 -5 0
-10 -4 -10 -10z"/>
<path d="M1840 1955 l0 -55 55 0 55 0 0 55 0 55 -55 0 -55 0 0 -55z m90 5 l0
-40 -40 0 c-39 0 -40 1 -40 33 0 19 3 37 7 40 3 4 21 7 40 7 32 0 33 -1 33
-40z"/>
<path d="M1870 1954 c0 -21 4 -25 23 -22 14 2 23 11 25 26 3 18 -1 22 -22 22
-21 0 -26 -5 -26 -26z"/>
<path d="M528 1983 c29 -2 74 -2 100 0 26 2 2 3 -53 3 -55 0 -76 -1 -47 -3z"/>
<path d="M475 1960 c3 -6 48 -10 101 -10 56 0 94 4 94 10 0 6 -40 10 -101 10
-64 0 -98 -4 -94 -10z"/>
<path d="M1803 1926 c7 -14 13 -23 15 -21 7 6 -9 45 -18 45 -4 0 -3 -11 3 -24z"/>
<path d="M528 1933 c29 -2 74 -2 100 0 26 2 2 3 -53 3 -55 0 -76 -1 -47 -3z"/>
<path d="M1720 1920 c-8 -5 -11 -12 -7 -17 5 -4 13 -1 18 7 9 13 10 13 6 -1
-6 -20 10 -39 34 -39 11 0 16 8 16 28 0 15 -2 21 -4 15 -6 -18 -23 -16 -23 2
0 17 -18 19 -40 5z"/>
<path d="M1620 1910 c0 -5 5 -10 10 -10 6 0 10 5 10 10 0 6 -4 10 -10 10 -5 0
-10 -4 -10 -10z"/>
<path d="M475 1900 c-4 -6 30 -10 94 -10 61 0 101 4 101 10 0 6 -38 10 -94 10
-53 0 -98 -4 -101 -10z"/>
<path d="M1442 1879 c2 -7 10 -15 17 -17 8 -3 12 1 9 9 -2 7 -10 15 -17 17 -8
3 -12 -1 -9 -9z"/>
<path d="M1492 1875 c-14 -16 -9 -18 26 -9 12 4 22 10 22 15 0 14 -34 10 -48
-6z"/>
<path d="M1620 1880 c0 -5 5 -10 11 -10 5 0 7 5 4 10 -3 6 -8 10 -11 10 -2 0
-4 -4 -4 -10z"/>
<path d="M1857 1883 c-11 -10 -8 -43 3 -43 6 0 10 11 10 25 0 26 -2 29 -13 18z"/>
<path d="M1890 1880 c0 -5 14 -10 30 -10 17 0 30 5 30 10 0 6 -13 10 -30 10
-16 0 -30 -4 -30 -10z"/>
<path d="M518 1873 c28 -2 76 -2 105 0 28 2 5 3 -53 3 -58 0 -81 -1 -52 -3z"/>
<path d="M480 1845 c0 -12 17 -15 95 -15 78 0 95 3 95 15 0 12 -17 15 -95 15
-78 0 -95 -3 -95 -15z"/>
<path d="M1510 1850 c0 -5 11 -10 25 -10 14 0 25 5 25 10 0 6 -11 10 -25 10
-14 0 -25 -4 -25 -10z"/>
<path d="M1575 1849 c-10 -14 -1 -21 19 -13 9 3 13 10 10 15 -7 12 -21 11 -29
-2z"/>
<path d="M1890 1845 c0 -9 6 -12 15 -9 8 4 12 10 9 15 -8 14 -24 10 -24 -6z"/>
<path d="M1536 1813 c6 -26 -8 -30 -26 -8 -16 19 -30 19 -30 0 0 -7 -8 -19
-17 -24 -16 -9 -16 -12 -3 -21 11 -7 16 -5 18 10 4 25 18 26 31 3 8 -14 12
-15 19 -5 5 7 22 14 38 16 16 2 32 4 37 5 4 0 7 6 7 11 0 6 -15 10 -34 10 -19
0 -37 6 -40 13 -3 6 -3 2 0 -10z"/>
<path d="M1920 1820 c0 -5 7 -10 16 -10 8 0 12 5 9 10 -3 6 -10 10 -16 10 -5
0 -9 -4 -9 -10z"/>
<path d="M476 1805 c5 -12 26 -15 100 -15 77 0 94 3 94 15 0 12 -18 15 -100
15 -84 0 -98 -2 -94 -15z"/>
<path d="M1558 1770 c-1 -5 -18 -12 -37 -15 -53 -6 -57 -18 -8 -30 24 -6 26
-5 20 11 -6 16 -5 17 9 4 13 -13 13 -16 0 -30 -14 -13 -14 -15 1 -18 20 -4 23
-22 3 -22 -8 0 -13 -11 -13 -26 0 -17 2 -22 8 -13 4 7 24 13 43 12 20 -1 41 5
47 14 10 11 7 19 -14 41 l-27 27 0 -28 c0 -27 -15 -37 -23 -14 -6 20 4 47 19
47 19 0 17 14 -5 34 -11 10 -20 13 -23 6z"/>
<path d="M475 1750 c-4 -6 30 -10 94 -10 61 0 101 4 101 10 0 6 -38 10 -94 10
-53 0 -98 -4 -101 -10z"/>
<path d="M1450 1725 c0 -16 6 -25 16 -25 12 0 15 -6 10 -25 -4 -14 -2 -25 3
-25 12 0 16 8 25 43 5 21 3 27 -9 27 -9 0 -18 7 -21 15 -9 24 -24 17 -24 -10z"/>
<path d="M518 1723 c28 -2 76 -2 105 0 28 2 5 3 -53 3 -58 0 -81 -1 -52 -3z"/>
<path d="M800 1431 l0 -301 168 0 c164 0 170 1 222 28 67 34 92 67 97 129 5
61 -18 109 -70 142 l-38 25 25 13 c55 29 73 120 36 180 -10 18 -39 42 -62 55
-39 20 -60 23 -210 26 l-168 4 0 -301z m341 193 c31 -32 29 -92 -6 -121 -24
-21 -36 -23 -136 -23 l-109 0 0 86 0 86 115 -4 c101 -3 117 -6 136 -24z m16
-250 c23 -17 29 -30 31 -69 2 -33 -2 -52 -13 -65 -23 -25 -98 -40 -200 -40
l-85 0 0 101 0 101 119 -4 c103 -3 124 -6 148 -24z"/>
<path d="M1870 1709 c1 -18 35 -59 49 -59 19 0 12 15 -19 45 -19 18 -30 24
-30 14z"/>
<path d="M480 1695 c0 -12 17 -15 95 -15 78 0 95 3 95 15 0 12 -17 15 -95 15
-78 0 -95 -3 -95 -15z"/>
<path d="M476 1655 c5 -12 26 -15 100 -15 77 0 94 3 94 15 0 12 -18 15 -100
15 -84 0 -98 -2 -94 -15z"/>
<path d="M1450 1629 c0 -5 5 -7 10 -4 6 3 10 8 10 11 0 2 -4 4 -10 4 -5 0 -10
-5 -10 -11z"/>
<path d="M1480 1629 c0 -5 5 -7 10 -4 6 3 10 8 10 11 0 2 -4 4 -10 4 -5 0 -10
-5 -10 -11z"/>
<path d="M1573 1613 c21 -5 23 -23 2 -23 -8 0 -15 -7 -15 -15 0 -9 9 -15 24
-15 13 0 31 -3 40 -6 12 -4 16 0 16 16 0 16 -4 20 -15 16 -10 -4 -15 1 -15 14
0 15 -6 20 -27 19 -17 -1 -21 -3 -10 -6z"/>
<path d="M475 1600 c-4 -6 30 -10 94 -10 61 0 101 4 101 10 0 6 -38 10 -94 10
-53 0 -98 -4 -101 -10z"/>
<path d="M1440 1555 l0 -55 50 0 50 0 0 55 0 55 -50 0 -50 0 0 -55z m88 -2
c-3 -36 -5 -38 -40 -41 l-38 -3 0 40 0 41 41 0 40 0 -3 -37z"/>
<path d="M1470 1555 c0 -18 5 -25 20 -25 15 0 20 7 20 25 0 18 -5 25 -20 25
-15 0 -20 -7 -20 -25z"/>
<path d="M518 1573 c28 -2 76 -2 105 0 28 2 5 3 -53 3 -58 0 -81 -1 -52 -3z"/>
<path d="M480 1545 c0 -12 17 -15 95 -15 78 0 95 3 95 15 0 12 -17 15 -95 15
-78 0 -95 -3 -95 -15z"/>
<path d="M1590 1540 c0 -5 -7 -10 -15 -10 -8 0 -15 -7 -15 -15 0 -9 6 -12 15
-9 8 4 15 10 15 15 0 5 5 9 10 9 6 0 10 -7 10 -15 0 -8 7 -15 15 -15 19 0 19
17 1 36 -17 16 -36 19 -36 4z"/>
<path d="M476 1505 c5 -12 26 -15 100 -15 77 0 94 3 94 15 0 12 -18 15 -100
15 -84 0 -98 -2 -94 -15z"/>
<path d="M475 1450 c-4 -6 30 -10 94 -10 61 0 101 4 101 10 0 6 -38 10 -94 10
-53 0 -98 -4 -101 -10z"/>
<path d="M518 1423 c28 -2 76 -2 105 0 28 2 5 3 -53 3 -58 0 -81 -1 -52 -3z"/>
<path d="M480 1400 c0 -6 38 -10 95 -10 57 0 95 4 95 10 0 6 -38 10 -95 10
-57 0 -95 -4 -95 -10z"/>
<path d="M476 1355 c5 -12 26 -15 100 -15 77 0 94 3 94 15 0 12 -18 15 -100
15 -84 0 -98 -2 -94 -15z"/>
<path d="M518 1303 c28 -2 76 -2 105 0 28 2 5 3 -53 3 -58 0 -81 -1 -52 -3z"/>
<path d="M475 1280 c3 -6 48 -10 101 -10 56 0 94 4 94 10 0 6 -40 10 -101 10
-64 0 -98 -4 -94 -10z"/>
<path d="M528 1243 c29 -2 74 -2 100 0 26 2 2 3 -53 3 -55 0 -76 -1 -47 -3z"/>
<path d="M480 1220 c0 -6 38 -10 95 -10 57 0 95 4 95 10 0 6 -38 10 -95 10
-57 0 -95 -4 -95 -10z"/>
<path d="M1455 1160 c0 -27 5 -50 10 -50 6 0 9 21 7 50 -5 65 -17 65 -17 0z"/>
<path d="M1516 1201 c-4 -5 3 -7 14 -4 16 4 20 0 20 -18 0 -17 3 -20 11 -12 7
7 9 19 6 27 -7 17 -42 22 -51 7z"/>
<path d="M1613 1199 c14 -8 15 -14 7 -24 -8 -9 -8 -15 0 -20 18 -11 11 -33
-12 -38 l-23 -4 22 -2 c25 -1 46 28 34 48 -5 7 -6 22 -4 32 4 15 0 19 -18 19
-22 -1 -22 -2 -6 -11z"/>
<path d="M1699 1203 c-1 -5 0 -18 1 -30 1 -15 -5 -23 -22 -26 l-23 -4 23 -2
c12 0 22 -8 22 -16 0 -21 18 -19 22 3 5 27 -3 82 -13 82 -5 0 -9 -3 -10 -7z"/>
<path d="M1765 1190 c9 -10 15 -26 12 -34 -4 -10 -1 -13 8 -10 7 3 16 -3 20
-15 3 -12 13 -21 22 -21 15 0 15 2 0 18 -8 9 -17 23 -19 31 -4 19 -35 51 -50
51 -6 0 -4 -8 7 -20z"/>
<path d="M1880 1180 c13 -18 20 -39 17 -50 -3 -13 0 -20 8 -20 8 0 11 7 8 20
-3 11 4 32 17 50 12 16 17 30 11 30 -5 0 -13 -9 -16 -20 -3 -11 -10 -20 -15
-20 -5 0 -14 9 -20 20 -6 11 -15 20 -21 20 -6 0 -1 -14 11 -30z"/>
<path d="M1993 1159 l-31 -49 44 0 c24 0 44 4 44 8 0 5 -14 6 -31 4 -35 -5
-35 -2 8 56 15 20 19 32 11 31 -7 0 -27 -22 -45 -50z"/>
<path d="M323 1193 c15 -2 37 -2 50 0 12 2 0 4 -28 4 -27 0 -38 -2 -22 -4z"/>
<path d="M475 1190 c-4 -6 30 -10 94 -10 61 0 101 4 101 10 0 6 -38 10 -94 10
-53 0 -98 -4 -101 -10z"/>
<path d="M528 1153 c29 -2 74 -2 100 0 26 2 2 3 -53 3 -55 0 -76 -1 -47 -3z"/>
<path d="M1520 1125 c-11 -13 -8 -15 21 -14 24 1 27 3 11 6 -12 2 -20 9 -17
14 10 15 -1 10 -15 -6z"/>
<path d="M1755 1120 c-3 -5 -1 -10 4 -10 6 0 11 5 11 10 0 6 -2 10 -4 10 -3 0
-8 -4 -11 -10z"/>
<path d="M518 1113 c28 -2 76 -2 105 0 28 2 5 3 -53 3 -58 0 -81 -1 -52 -3z"/>
<path d="M518 1093 c28 -2 76 -2 105 0 28 2 5 3 -53 3 -58 0 -81 -1 -52 -3z"/>
<path d="M323 1073 c15 -2 37 -2 50 0 12 2 0 4 -28 4 -27 0 -38 -2 -22 -4z"/>
<path d="M518 1053 c28 -2 76 -2 105 0 28 2 5 3 -53 3 -58 0 -81 -1 -52 -3z"/>
<path d="M518 1033 c28 -2 76 -2 105 0 28 2 5 3 -53 3 -58 0 -81 -1 -52 -3z"/>
<path d="M1583 985 c0 -22 2 -30 4 -17 2 12 2 30 0 40 -3 9 -5 -1 -4 -23z"/>
<path d="M1654 985 c1 -46 16 -46 16 0 0 19 -4 35 -8 35 -5 0 -8 -16 -8 -35z"/>
<path d="M1693 985 c0 -22 2 -30 4 -17 2 12 2 30 0 40 -3 9 -5 -1 -4 -23z"/>
<path d="M1811 983 c0 -29 2 -33 8 -18 7 18 4 55 -5 55 -2 0 -4 -17 -3 -37z"/>
<path d="M1878 985 c2 -19 6 -35 8 -35 2 0 4 16 4 35 0 19 -4 35 -8 35 -4 0
-6 -16 -4 -35z"/>
<path d="M518 1003 c28 -2 76 -2 105 0 28 2 5 3 -53 3 -58 0 -81 -1 -52 -3z"/>
<path d="M1624 996 c3 -10 1 -25 -5 -32 -8 -9 -8 -14 -1 -14 17 0 25 41 12 54
-10 8 -11 7 -6 -8z"/>
<path d="M1750 1004 c0 -3 9 -17 20 -31 12 -15 20 -20 20 -12 0 8 -9 22 -20
32 -11 9 -20 14 -20 11z"/>
<path d="M518 943 c28 -2 76 -2 105 0 28 2 5 3 -53 3 -58 0 -81 -1 -52 -3z"/>
<path d="M477 900 c5 -18 14 -20 99 -20 87 0 94 1 94 20 0 19 -7 20 -99 20
-94 0 -99 -1 -94 -20z"/>
<path d="M989 613 c-5 -16 -11 -33 -14 -40 -2 -7 -28 -13 -61 -15 -48 -3 -58
-6 -65 -25 -8 -23 -8 -23 95 -23 131 0 150 12 180 108 7 21 5 22 -59 22 -62 0
-66 -1 -76 -27z"/>
<path d="M1206 551 c-4 -6 -18 -47 -30 -91 l-24 -80 55 0 c65 0 88 11 108 50
19 36 23 96 7 112 -15 15 -108 23 -116 9z m88 -47 c10 -26 -20 -83 -48 -90
-40 -10 -44 -2 -28 54 13 47 17 52 42 52 16 0 30 -7 34 -16z"/>
<path d="M1426 550 c-44 -8 -50 -16 -71 -84 -25 -82 -23 -86 39 -86 58 0 71 9
86 59 8 30 8 31 -26 31 -33 0 -49 -23 -22 -32 20 -7 -2 -28 -29 -28 -22 0 -24
3 -18 28 15 62 28 77 70 80 38 3 59 18 49 34 -6 9 -23 9 -78 -2z"/>
<path d="M1533 553 c-23 -9 -14 -33 12 -33 29 0 30 -2 10 -66 -19 -64 -19 -74
3 -74 14 0 22 16 36 70 17 66 20 70 47 70 22 0 29 5 29 20 0 18 -6 20 -62 19
-35 0 -69 -3 -75 -6z"/>
<path d="M837 483 c-4 -3 -7 -15 -7 -25 0 -17 11 -18 149 -18 152 0 161 2 161
41 0 10 -293 13 -303 2z"/>
<path d="M897 409 c-19 -11 -56 -82 -57 -106 0 -9 19 -13 65 -13 l64 0 12 40
c11 37 15 40 58 45 25 4 53 7 61 8 8 1 16 10 18 20 3 15 -7 17 -100 17 -57 0
-111 -5 -121 -11z"/>
</g>
</svg>
