<?xml version="1.0" standalone="no"?>
<!DOCTYPE svg PUBLIC "-//W3C//DTD SVG 20010904//EN"
 "http://www.w3.org/TR/2001/REC-SVG-20010904/DTD/svg10.dtd">
<svg version="1.0" xmlns="http://www.w3.org/2000/svg"
 width="250.000000pt" height="250.000000pt" viewBox="0 0 250.000000 250.000000"
 preserveAspectRatio="xMidYMid meet">

<g transform="translate(0.000000,250.000000) scale(0.100000,-0.100000)"
fill="#000000" stroke="none">
<path d="M1040 2203 c0 -25 2 -44 5 -41 9 8 12 88 3 88 -4 0 -8 -21 -8 -47z"/>
<path d="M1110 2231 c0 -36 19 -71 37 -70 17 1 17 2 1 6 -13 3 -18 15 -18 44
0 21 -4 39 -10 39 -5 0 -10 -9 -10 -19z"/>
<path d="M1173 2215 c0 -22 2 -30 4 -17 2 12 2 30 0 40 -3 9 -5 -1 -4 -23z"/>
<path d="M1206 2210 c2 -44 14 -69 14 -30 0 23 0 23 22 4 19 -15 20 -16 9 -1
-10 13 -11 20 -2 31 9 10 8 16 -3 25 -12 10 -13 9 -9 -8 3 -12 1 -21 -6 -21
-6 0 -11 9 -11 20 0 11 -4 20 -8 20 -5 0 -7 -18 -6 -40z"/>
<path d="M1448 2243 c-2 -5 -1 -26 3 -48 l6 -40 2 48 c1 44 -3 57 -11 40z"/>
<path d="M1287 2233 c-10 -9 -9 -51 1 -57 5 -3 8 11 8 29 -1 19 -1 35 -2 35 0
0 -4 -3 -7 -7z"/>
<path d="M1338 2206 c-4 -38 6 -49 17 -16 3 11 2 27 -3 36 -8 14 -10 9 -14
-20z"/>
<path d="M1440 1955 l0 -55 50 0 50 0 0 55 0 55 -50 0 -50 0 0 -55z m88 3 l3
-38 -40 0 -41 0 0 41 0 40 38 -3 c35 -3 37 -5 40 -40z"/>
<path d="M1470 1955 c0 -18 5 -25 20 -25 15 0 20 7 20 25 0 18 -5 25 -20 25
-15 0 -20 -7 -20 -25z"/>
<path d="M1563 1958 c0 -47 3 -55 14 -47 10 9 13 6 13 -16 0 -22 3 -25 13 -16
18 14 9 71 -13 91 -9 8 -19 22 -23 30 -3 8 -5 -11 -4 -42z"/>
<path d="M1628 2004 c-13 -4 -16 -12 -11 -37 7 -37 18 -47 44 -40 14 4 19 0
18 -13 0 -11 -3 -14 -6 -6 -7 17 -23 15 -23 -3 0 -8 5 -15 10 -15 6 0 10 -12
10 -26 0 -23 2 -25 15 -14 21 18 25 11 15 -30 -7 -32 -9 -33 -15 -12 -9 27
-25 29 -32 2 -5 -17 -7 -18 -21 -4 -13 14 -13 17 -1 26 12 8 12 9 -1 6 -20 -6
-24 -77 -4 -85 17 -6 19 -30 2 -36 -7 -2 -9 -8 -5 -13 4 -5 12 -2 17 6 7 10
10 11 10 3 0 -7 12 -14 28 -14 20 -1 22 -2 7 -6 -24 -6 -44 -23 -27 -23 7 0
12 -7 12 -15 0 -9 6 -12 17 -8 13 5 12 1 -6 -18 -22 -23 -23 -24 -37 -5 -7 11
-16 17 -20 14 -10 -10 35 -48 56 -48 11 0 20 -7 20 -15 0 -8 -4 -15 -10 -15
-5 0 -10 5 -10 11 0 6 -7 3 -16 -5 -17 -17 -16 -47 2 -53 6 -2 15 6 19 19 l7
23 7 -25 c5 -23 11 -25 64 -25 40 -1 57 3 57 12 0 7 7 13 15 13 8 0 15 -7 15
-16 0 -20 42 -15 47 6 4 13 3 13 -5 1 -9 -12 -13 -12 -26 2 -18 18 -21 37 -6
37 6 0 10 -7 10 -15 0 -18 16 -20 23 -2 4 10 6 10 6 0 1 -18 26 -16 41 2 10
12 10 19 2 27 -9 9 -12 9 -12 0 0 -20 -28 -13 -35 9 -4 11 -4 23 -1 26 3 4 6
1 6 -5 0 -7 7 -12 15 -12 10 0 15 10 15 26 0 22 -3 24 -14 15 -12 -10 -16 -8
-21 11 -9 27 -34 53 -43 44 -3 -4 -1 -16 6 -26 10 -17 10 -20 -3 -20 -9 0 -15
9 -15 25 0 14 -4 25 -10 25 -5 0 -10 -6 -10 -12 0 -9 -4 -8 -10 2 -9 13 -11
13 -21 0 -9 -13 -10 -13 -6 0 2 10 16 15 36 14 31 0 32 1 27 30 -4 23 -3 27 4
16 9 -13 11 -13 20 0 9 13 12 13 21 -2 5 -10 18 -18 27 -17 14 0 14 2 2 6 -32
13 -33 52 -1 54 13 0 13 2 1 6 -8 4 -22 16 -32 27 -10 12 -17 15 -18 9 0 -7 5
-13 10 -13 24 0 7 -18 -22 -24 -24 -5 -36 -2 -44 9 -6 8 -14 15 -18 15 -9 0
-7 -28 3 -32 4 -1 12 -13 16 -26 7 -23 6 -23 -14 -5 -13 11 -21 29 -21 50 0
30 3 33 29 33 16 0 31 -3 34 -7 2 -5 2 -2 0 5 -1 8 -3 19 -3 27 0 7 -11 13
-25 13 -16 0 -25 -6 -25 -16 0 -12 -3 -13 -12 -4 -21 21 -28 13 -23 -23 5 -39
-2 -65 -16 -65 -5 0 -9 23 -9 50 0 29 -7 61 -15 74 -9 13 -15 28 -14 32 5 29
-3 42 -26 42 -14 0 -29 2 -32 6 -11 11 19 36 43 36 18 0 23 -5 21 -21 -1 -12
4 -24 11 -26 6 -3 12 2 12 11 0 9 5 16 10 16 6 0 10 -7 10 -15 0 -8 6 -12 15
-10 51 16 50 16 35 26 -13 8 -13 10 0 19 9 6 10 10 3 10 -7 0 -17 -8 -22 -17
-9 -15 -12 -16 -20 -4 -9 14 -100 24 -133 15z m72 -124 c0 -5 -5 -10 -11 -10
-5 0 -7 5 -4 10 3 6 8 10 11 10 2 0 4 -4 4 -10z m-30 -130 c0 -16 -4 -30 -10
-30 -5 0 -10 7 -10 15 0 9 -7 18 -15 21 -24 9 -17 24 10 24 21 0 25 -5 25 -30z
m30 17 c0 -9 11 -13 30 -12 18 1 36 -5 46 -16 14 -16 12 -17 -41 -17 -38 1
-52 4 -43 10 10 8 10 11 1 15 -15 6 -17 33 -3 33 6 0 10 -6 10 -13z m170 3 c0
-5 -2 -10 -4 -10 -3 0 -8 5 -11 10 -3 6 -1 10 4 10 6 0 11 -4 11 -10z m-114
-100 c-5 -46 -3 -50 15 -50 15 0 19 5 15 15 -4 10 1 15 14 15 24 0 25 -4 4
-24 -8 -9 -11 -16 -5 -16 15 0 14 -47 -1 -54 -7 -3 -2 -4 12 -2 14 2 19 1 13
-1 -7 -3 -13 -9 -13 -14 0 -5 -7 -9 -15 -9 -12 0 -14 9 -10 40 5 45 -5 50 -35
20 -24 -24 -25 -30 -5 -30 9 0 12 -6 9 -15 -4 -8 -16 -15 -27 -15 -15 0 -18 3
-10 11 8 8 7 19 -5 39 -15 26 -15 30 1 48 20 22 22 58 5 66 -7 3 -3 3 10 0 16
-4 22 -1 22 10 0 9 3 16 6 16 3 0 3 -22 0 -50z m114 -70 c0 -15 -7 -20 -25
-20 -18 0 -25 5 -25 20 0 15 7 20 25 20 18 0 25 -5 25 -20z"/>
<path d="M1710 1740 c0 -5 5 -10 10 -10 6 0 10 5 10 10 0 6 -4 10 -10 10 -5 0
-10 -4 -10 -10z"/>
<path d="M1840 1955 l0 -55 55 0 55 0 0 55 0 55 -55 0 -55 0 0 -55z m90 5 l0
-40 -40 0 c-39 0 -40 1 -40 33 0 19 3 37 7 40 3 4 21 7 40 7 32 0 33 -1 33
-40z"/>
<path d="M1870 1954 c0 -21 4 -25 23 -22 14 2 23 11 25 26 3 18 -1 22 -22 22
-21 0 -26 -5 -26 -26z"/>
<path d="M528 1983 c29 -2 74 -2 100 0 26 2 2 3 -53 3 -55 0 -76 -1 -47 -3z"/>
<path d="M475 1960 c3 -6 48 -10 101 -10 56 0 94 4 94 10 0 6 -40 10 -101 10
-64 0 -98 -4 -94 -10z"/>
<path d="M1803 1926 c7 -14 13 -23 15 -21 7 6 -9 45 -18 45 -4 0 -3 -11 3 -24z"/>
<path d="M301 1926 c-25 -30 21 -66 67 -52 49 16 31 66 -23 66 -18 0 -38 -6
-44 -14z m78 -10 c19 -22 -23 -42 -56 -27 -21 9 -23 14 -13 26 16 19 54 19 69
1z"/>
<path d="M528 1933 c29 -2 74 -2 100 0 26 2 2 3 -53 3 -55 0 -76 -1 -47 -3z"/>
<path d="M1720 1920 c-8 -5 -11 -12 -7 -17 5 -4 13 -1 18 7 9 13 10 13 6 -1
-6 -20 10 -39 34 -39 11 0 16 8 16 28 0 15 -2 21 -4 15 -6 -18 -23 -16 -23 2
0 17 -18 19 -40 5z"/>
<path d="M1620 1910 c0 -5 5 -10 10 -10 6 0 10 5 10 10 0 6 -4 10 -10 10 -5 0
-10 -4 -10 -10z"/>
<path d="M475 1900 c-4 -6 30 -10 94 -10 61 0 101 4 101 10 0 6 -38 10 -94 10
-53 0 -98 -4 -101 -10z"/>
<path d="M1442 1879 c2 -7 10 -15 17 -17 8 -3 12 1 9 9 -2 7 -10 15 -17 17 -8
3 -12 -1 -9 -9z"/>
<path d="M1492 1875 c-14 -16 -9 -18 26 -9 12 4 22 10 22 15 0 14 -34 10 -48
-6z"/>
<path d="M1620 1880 c0 -5 5 -10 11 -10 5 0 7 5 4 10 -3 6 -8 10 -11 10 -2 0
-4 -4 -4 -10z"/>
<path d="M1857 1883 c-11 -10 -8 -43 3 -43 6 0 10 11 10 25 0 26 -2 29 -13 18z"/>
<path d="M1890 1880 c0 -5 14 -10 30 -10 17 0 30 5 30 10 0 6 -13 10 -30 10
-16 0 -30 -4 -30 -10z"/>
<path d="M518 1873 c28 -2 76 -2 105 0 28 2 5 3 -53 3 -58 0 -81 -1 -52 -3z"/>
<path d="M300 1845 c-18 -22 5 -45 45 -45 40 0 63 23 45 45 -7 8 -27 15 -45
15 -18 0 -38 -7 -45 -15z m85 -15 c0 -18 -62 -27 -77 -12 -18 18 3 33 40 30
25 -2 37 -8 37 -18z"/>
<path d="M480 1845 c0 -12 17 -15 95 -15 78 0 95 3 95 15 0 12 -17 15 -95 15
-78 0 -95 -3 -95 -15z"/>
<path d="M1510 1850 c0 -5 11 -10 25 -10 14 0 25 5 25 10 0 6 -11 10 -25 10
-14 0 -25 -4 -25 -10z"/>
<path d="M1575 1849 c-10 -14 -1 -21 19 -13 9 3 13 10 10 15 -7 12 -21 11 -29
-2z"/>
<path d="M1890 1845 c0 -9 6 -12 15 -9 8 4 12 10 9 15 -8 14 -24 10 -24 -6z"/>
<path d="M1536 1813 c6 -26 -8 -30 -26 -8 -16 19 -30 19 -30 0 0 -7 -8 -19
-17 -24 -16 -9 -16 -12 -3 -21 11 -7 16 -5 18 10 4 25 18 26 31 3 8 -14 12
-15 19 -5 5 7 22 14 38 16 16 2 32 4 37 5 4 0 7 6 7 11 0 6 -15 10 -34 10 -19
0 -37 6 -40 13 -3 6 -3 2 0 -10z"/>
<path d="M1920 1820 c0 -5 7 -10 16 -10 8 0 12 5 9 10 -3 6 -10 10 -16 10 -5
0 -9 -4 -9 -10z"/>
<path d="M476 1805 c5 -12 26 -15 100 -15 77 0 94 3 94 15 0 12 -18 15 -100
15 -84 0 -98 -2 -94 -15z"/>
<path d="M306 1774 c-19 -19 -20 -26 -4 -42 24 -24 98 -9 98 19 0 16 -33 39
-55 39 -13 0 -31 -7 -39 -16z m64 -4 c27 -14 14 -40 -20 -40 -37 0 -58 24 -33
39 23 13 30 13 53 1z"/>
<path d="M1558 1770 c-1 -5 -18 -12 -37 -15 -53 -6 -57 -18 -8 -30 24 -6 26
-5 20 11 -6 16 -5 17 9 4 13 -13 13 -16 0 -30 -14 -13 -14 -15 1 -18 20 -4 23
-22 3 -22 -8 0 -13 -11 -13 -26 0 -17 2 -22 8 -13 4 7 24 13 43 12 20 -1 41 5
47 14 10 11 7 19 -14 41 l-27 27 0 -28 c0 -27 -15 -37 -23 -14 -6 20 4 47 19
47 19 0 17 14 -5 34 -11 10 -20 13 -23 6z"/>
<path d="M475 1750 c-4 -6 30 -10 94 -10 61 0 101 4 101 10 0 6 -38 10 -94 10
-53 0 -98 -4 -101 -10z"/>
<path d="M969 1735 c-64 -20 -142 -93 -176 -163 -23 -48 -27 -70 -27 -142 -1
-71 4 -94 25 -140 56 -120 145 -181 262 -181 123 0 205 55 246 166 32 84 31
87 -36 83 -56 -3 -56 -3 -67 -41 -34 -116 -149 -157 -241 -85 -94 74 -101 284
-12 376 79 82 209 59 252 -45 14 -33 15 -34 67 -31 52 3 53 3 50 33 -2 17 -15
50 -30 75 -53 87 -200 131 -313 95z"/>
<path d="M1450 1725 c0 -16 6 -25 16 -25 12 0 15 -6 10 -25 -4 -14 -2 -25 3
-25 12 0 16 8 25 43 5 21 3 27 -9 27 -9 0 -18 7 -21 15 -9 24 -24 17 -24 -10z"/>
<path d="M518 1723 c28 -2 76 -2 105 0 28 2 5 3 -53 3 -58 0 -81 -1 -52 -3z"/>
<path d="M1870 1709 c1 -18 35 -59 49 -59 19 0 12 15 -19 45 -19 18 -30 24
-30 14z"/>
<path d="M300 1691 c-7 -15 -6 -23 6 -35 34 -35 105 -5 84 35 -7 13 -21 19
-45 19 -24 0 -38 -6 -45 -19z m78 -3 c8 -8 9 -15 1 -25 -14 -16 -34 -17 -60
-2 -16 8 -18 13 -8 25 14 17 51 18 67 2z"/>
<path d="M480 1695 c0 -12 17 -15 95 -15 78 0 95 3 95 15 0 12 -17 15 -95 15
-78 0 -95 -3 -95 -15z"/>
<path d="M476 1655 c5 -12 26 -15 100 -15 77 0 94 3 94 15 0 12 -18 15 -100
15 -84 0 -98 -2 -94 -15z"/>
<path d="M1450 1629 c0 -5 5 -7 10 -4 6 3 10 8 10 11 0 2 -4 4 -10 4 -5 0 -10
-5 -10 -11z"/>
<path d="M1480 1629 c0 -5 5 -7 10 -4 6 3 10 8 10 11 0 2 -4 4 -10 4 -5 0 -10
-5 -10 -11z"/>
<path d="M301 1616 c-14 -16 -4 -46 15 -46 8 0 14 -4 14 -10 0 -5 -6 -10 -14
-10 -19 0 -29 -30 -15 -46 6 -8 26 -14 44 -14 55 0 72 49 22 65 l-22 8 22 4
c51 10 33 63 -22 63 -18 0 -38 -6 -44 -14z m82 -10 c8 -20 -1 -26 -39 -26 -34
0 -50 12 -39 30 9 15 72 12 78 -4z m0 -72 c14 -14 -8 -34 -38 -34 -19 0 -35 6
-38 14 -8 20 1 26 38 26 17 0 34 -3 38 -6z"/>
<path d="M1573 1613 c21 -5 23 -23 2 -23 -8 0 -15 -7 -15 -15 0 -9 9 -15 24
-15 13 0 31 -3 40 -6 12 -4 16 0 16 16 0 16 -4 20 -15 16 -10 -4 -15 1 -15 14
0 15 -6 20 -27 19 -17 -1 -21 -3 -10 -6z"/>
<path d="M475 1600 c-4 -6 30 -10 94 -10 61 0 101 4 101 10 0 6 -38 10 -94 10
-53 0 -98 -4 -101 -10z"/>
<path d="M1440 1555 l0 -55 50 0 50 0 0 55 0 55 -50 0 -50 0 0 -55z m88 -2
c-3 -36 -5 -38 -40 -41 l-38 -3 0 40 0 41 41 0 40 0 -3 -37z"/>
<path d="M1470 1555 c0 -18 5 -25 20 -25 15 0 20 7 20 25 0 18 -5 25 -20 25
-15 0 -20 -7 -20 -25z"/>
<path d="M518 1573 c28 -2 76 -2 105 0 28 2 5 3 -53 3 -58 0 -81 -1 -52 -3z"/>
<path d="M480 1545 c0 -12 17 -15 95 -15 78 0 95 3 95 15 0 12 -17 15 -95 15
-78 0 -95 -3 -95 -15z"/>
<path d="M1590 1540 c0 -5 -7 -10 -15 -10 -8 0 -15 -7 -15 -15 0 -9 6 -12 15
-9 8 4 15 10 15 15 0 5 5 9 10 9 6 0 10 -7 10 -15 0 -8 7 -15 15 -15 19 0 19
17 1 36 -17 16 -36 19 -36 4z"/>
<path d="M476 1505 c5 -12 26 -15 100 -15 77 0 94 3 94 15 0 12 -18 15 -100
15 -84 0 -98 -2 -94 -15z"/>
<path d="M306 1464 c-25 -24 -4 -54 39 -54 43 0 64 30 39 54 -8 9 -26 16 -39
16 -13 0 -31 -7 -39 -16z m72 -6 c16 -16 -3 -38 -33 -38 -30 0 -49 22 -33 38
7 7 21 12 33 12 12 0 26 -5 33 -12z"/>
<path d="M475 1450 c-4 -6 30 -10 94 -10 61 0 101 4 101 10 0 6 -38 10 -94 10
-53 0 -98 -4 -101 -10z"/>
<path d="M518 1423 c28 -2 76 -2 105 0 28 2 5 3 -53 3 -58 0 -81 -1 -52 -3z"/>
<path d="M480 1400 c0 -6 38 -10 95 -10 57 0 95 4 95 10 0 6 -38 10 -95 10
-57 0 -95 -4 -95 -10z"/>
<path d="M301 1386 c-25 -30 21 -66 67 -52 49 16 31 66 -23 66 -18 0 -38 -6
-44 -14z m79 -6 c0 -22 -2 -25 -18 -31 -26 -10 -63 7 -56 26 7 17 74 22 74 5z"/>
<path d="M476 1355 c5 -12 26 -15 100 -15 77 0 94 3 94 15 0 12 -18 15 -100
15 -84 0 -98 -2 -94 -15z"/>
<path d="M352 1300 c0 -14 2 -19 5 -12 2 6 2 18 0 25 -3 6 -5 1 -5 -13z"/>
<path d="M518 1303 c28 -2 76 -2 105 0 28 2 5 3 -53 3 -58 0 -81 -1 -52 -3z"/>
<path d="M475 1280 c3 -6 48 -10 101 -10 56 0 94 4 94 10 0 6 -40 10 -101 10
-64 0 -98 -4 -94 -10z"/>
<path d="M302 1258 c-31 -31 -3 -78 46 -78 45 0 66 68 27 84 -13 5 -13 2 0
-18 14 -22 14 -25 0 -40 -19 -19 -29 -20 -56 -6 -21 12 -26 46 -6 53 6 2 9 7
6 10 -3 4 -11 1 -17 -5z"/>
<path d="M528 1243 c29 -2 74 -2 100 0 26 2 2 3 -53 3 -55 0 -76 -1 -47 -3z"/>
<path d="M528 1203 c29 -2 74 -2 100 0 26 2 2 3 -53 3 -55 0 -76 -1 -47 -3z"/>
<path d="M1455 1160 c0 -27 5 -50 10 -50 6 0 9 21 7 50 -5 65 -17 65 -17 0z"/>
<path d="M1516 1201 c-4 -5 3 -7 14 -4 16 4 20 0 20 -18 0 -17 3 -20 11 -12 7
7 9 19 6 27 -7 17 -42 22 -51 7z"/>
<path d="M1613 1199 c14 -8 15 -14 7 -24 -8 -9 -8 -15 0 -20 18 -11 11 -33
-12 -38 l-23 -4 22 -2 c25 -1 46 28 34 48 -5 7 -6 22 -4 32 4 15 0 19 -18 19
-22 -1 -22 -2 -6 -11z"/>
<path d="M1699 1203 c-1 -5 0 -18 1 -30 1 -15 -5 -23 -22 -26 l-23 -4 23 -2
c12 0 22 -8 22 -16 0 -21 18 -19 22 3 5 27 -3 82 -13 82 -5 0 -9 -3 -10 -7z"/>
<path d="M1765 1190 c9 -10 15 -26 12 -34 -4 -10 -1 -13 8 -10 7 3 16 -3 20
-15 3 -12 13 -21 22 -21 15 0 15 2 0 18 -8 9 -17 23 -19 31 -4 19 -35 51 -50
51 -6 0 -4 -8 7 -20z"/>
<path d="M1880 1180 c13 -18 20 -39 17 -50 -3 -13 0 -20 8 -20 8 0 11 7 8 20
-3 11 4 32 17 50 12 16 17 30 11 30 -5 0 -13 -9 -16 -20 -3 -11 -10 -20 -15
-20 -5 0 -14 9 -20 20 -6 11 -15 20 -21 20 -6 0 -1 -14 11 -30z"/>
<path d="M1993 1159 l-31 -49 44 0 c24 0 44 4 44 8 0 5 -14 6 -31 4 -35 -5
-35 -2 8 56 15 20 19 32 11 31 -7 0 -27 -22 -45 -50z"/>
<path d="M480 1180 c0 -6 38 -10 95 -10 57 0 95 4 95 10 0 6 -38 10 -95 10
-57 0 -95 -4 -95 -10z"/>
<path d="M290 1155 c0 -3 19 -14 42 -24 l42 -17 -42 -17 c-23 -9 -42 -19 -42
-22 0 -3 24 -4 53 -4 47 2 49 2 17 8 l-35 7 33 8 c40 10 37 26 -9 42 l-34 12
40 4 c37 4 36 5 -12 6 -29 1 -53 0 -53 -3z"/>
<path d="M528 1153 c29 -2 74 -2 100 0 26 2 2 3 -53 3 -55 0 -76 -1 -47 -3z"/>
<path d="M1520 1125 c-11 -13 -8 -15 21 -14 24 1 27 3 11 6 -12 2 -20 9 -17
14 10 15 -1 10 -15 -6z"/>
<path d="M1755 1120 c-3 -5 -1 -10 4 -10 6 0 11 5 11 10 0 6 -2 10 -4 10 -3 0
-8 -4 -11 -10z"/>
<path d="M518 1113 c28 -2 76 -2 105 0 28 2 5 3 -53 3 -58 0 -81 -1 -52 -3z"/>
<path d="M518 1093 c28 -2 76 -2 105 0 28 2 5 3 -53 3 -58 0 -81 -1 -52 -3z"/>
<path d="M518 1053 c28 -2 76 -2 105 0 28 2 5 3 -53 3 -58 0 -81 -1 -52 -3z"/>
<path d="M340 1035 c-7 -8 -10 -22 -6 -30 7 -19 -8 -20 -23 -2 -8 10 -7 17 1
25 8 8 9 12 1 12 -19 0 -23 -29 -7 -45 37 -36 106 -5 83 38 -12 21 -32 22 -49
2z m39 -31 c-12 -15 -39 -8 -39 11 0 18 22 25 38 12 9 -7 9 -13 1 -23z"/>
<path d="M518 1033 c28 -2 76 -2 105 0 28 2 5 3 -53 3 -58 0 -81 -1 -52 -3z"/>
<path d="M1700 1005 c-10 -12 -10 -20 -1 -38 11 -21 11 -21 8 -1 -3 12 0 29 5
38 11 20 5 21 -12 1z"/>
<path d="M1778 985 c2 -19 6 -35 8 -35 2 0 4 16 4 35 0 19 -4 35 -8 35 -4 0
-6 -16 -4 -35z"/>
<path d="M1843 985 c0 -22 2 -30 4 -17 2 12 2 30 0 40 -3 9 -5 -1 -4 -23z"/>
<path d="M1870 1017 c0 -11 52 -68 58 -63 2 3 -10 20 -27 38 -17 18 -31 30
-31 25z"/>
<path d="M518 1003 c28 -2 76 -2 105 0 28 2 5 3 -53 3 -58 0 -81 -1 -52 -3z"/>
<path d="M1486 995 c-7 -19 3 -45 16 -45 7 0 6 5 -1 14 -6 7 -9 21 -5 30 3 9
4 16 1 16 -3 0 -7 -7 -11 -15z"/>
<path d="M1596 990 c3 -14 10 -29 15 -34 14 -16 10 6 -7 34 l-15 25 7 -25z"/>
<path d="M1640 1004 c0 -3 9 -17 20 -31 12 -15 20 -20 20 -12 0 8 -9 22 -20
32 -11 9 -20 14 -20 11z"/>
<path d="M1744 979 c-1 -15 3 -26 7 -23 11 6 12 41 2 47 -5 3 -8 -8 -9 -24z"/>
<path d="M1982 979 c6 -16 12 -28 14 -26 5 5 -13 57 -20 57 -3 0 0 -14 6 -31z"/>
<path d="M1530 965 c0 -8 2 -15 4 -15 2 0 6 7 10 15 3 8 1 15 -4 15 -6 0 -10
-7 -10 -15z"/>
<path d="M300 943 c0 -14 20 -39 20 -25 0 7 14 12 35 12 19 0 35 5 35 10 0 6
-20 10 -45 10 -25 0 -45 -3 -45 -7z"/>
<path d="M518 943 c28 -2 76 -2 105 0 28 2 5 3 -53 3 -58 0 -81 -1 -52 -3z"/>
<path d="M477 900 c5 -18 14 -20 99 -20 87 0 94 1 94 20 0 19 -7 20 -99 20
-94 0 -99 -1 -94 -20z"/>
<path d="M989 613 c-5 -16 -11 -33 -14 -40 -2 -7 -28 -13 -61 -15 -48 -3 -58
-6 -65 -25 -8 -23 -8 -23 95 -23 131 0 150 12 180 108 7 21 5 22 -59 22 -62 0
-66 -1 -76 -27z"/>
<path d="M1206 551 c-4 -6 -18 -47 -30 -91 l-24 -80 55 0 c65 0 88 11 108 50
19 36 23 96 7 112 -15 15 -108 23 -116 9z m88 -47 c10 -26 -20 -83 -48 -90
-40 -10 -44 -2 -28 54 13 47 17 52 42 52 16 0 30 -7 34 -16z"/>
<path d="M1421 550 c-39 -9 -46 -18 -66 -84 -25 -82 -23 -86 39 -86 58 0 71 9
86 59 8 30 8 31 -26 31 -33 0 -49 -23 -22 -32 20 -7 -2 -28 -29 -28 -22 0 -24
3 -18 28 15 62 28 77 70 80 38 3 59 18 49 34 -6 10 -37 9 -83 -2z"/>
<path d="M1533 553 c-23 -9 -14 -33 12 -33 29 0 30 -2 10 -66 -19 -64 -19 -74
3 -74 14 0 22 16 36 70 17 66 20 70 47 70 22 0 29 5 29 20 0 18 -6 20 -62 19
-35 0 -69 -3 -75 -6z"/>
<path d="M837 483 c-4 -3 -7 -15 -7 -25 0 -17 11 -18 149 -18 152 0 161 2 161
41 0 10 -293 13 -303 2z"/>
<path d="M897 409 c-19 -11 -56 -82 -57 -106 0 -9 19 -13 65 -13 l64 0 12 40
c11 37 15 40 58 45 25 4 53 7 61 8 8 1 16 10 18 20 3 15 -7 17 -100 17 -57 0
-111 -5 -121 -11z"/>
</g>
</svg>
